<svg xmlns="http://www.w3.org/2000/svg" viewBox="0 0 512 333" width="100%" height="100%">
  <g transform="scale(2.5)">
    <path d="M18.99 0.62C29.71 0.62 36.02-5.69 36.02-16.36 36.02-27.12 29.71-34.11 18.99-34.11 8.28-34.11 1.91-27.12 1.91-16.36 1.91-5.79 8.28 0.62 18.99 0.62ZM10.28-16.36C10.28-23.34 13.73-28.17 18.99-28.17 22.58-28.17 25.3-26.02 26.64-22.43 27.31-20.66 27.65-18.61 27.65-16.36 27.65-9.47 24.4-5.21 18.99-5.21 13.49-5.21 10.28-9.47 10.28-16.36ZM40.32-25.93L40.32-0.1 47.98-0.1 47.98-17.89C49.36-19.18 51.71-20.19 53.05-20.19 55.15-20.19 56.92-18.89 56.92-17.03L56.92-0.1 64.58-0.1 64.58-18.32C64.58-22.91 61.47-26.07 56.54-26.07 53.53-26.07 50.32-24.87 47.98-22.82L47.98-25.93ZM92.85-7.75C90.22-5.79 87.25-4.83 83.95-4.83 79.26-4.83 76.58-6.89 75.87-11L94.47-11C94.52-11.91 94.57-12.58 94.57-13.06 94.57-21.72 89.55-26.5 81.51-26.5 73.43-26.5 68.4-21.72 68.4-13.06 68.4-4.31 73.76 0.77 83.95 0.77 86.96 0.77 90.41 0.1 92.85-1.39ZM76.1-16.36C76.87-19.42 78.83-21.05 81.51-21.05 84.38-21.05 86.53-19.56 87.35-16.36ZM114.95 0L127.81 0 127.81-33.48 120.06-33.48 120.06-7.03 119.44-7.03 111.45-33.48 98.87-33.48 98.87 0 106.62 0 106.62-26.02 106.91-26.02ZM155.89 0L164.31 0 154.6-33.48 141.45-33.48 131.74 0 140.11 0 142.64-9.47 153.36-9.47ZM144.17-15.21L147.95-29.23 148.05-29.23 151.83-15.21ZM180.29 0.57C186.89 0.29 191-3.78 191-9.52 191-13.58 189.23-16.22 186.31-17.94 184.83-18.75 182.97-19.52 180.62-20.19 176.75-21.53 174.93-22.91 174.93-24.78 174.93-26.83 176.7-28.03 179.95-28.03 182.49-28.03 186.22-27.27 188.71-26.17L188.71-32.34C186.41-33.34 182.77-34.11 179.47-34.11 178.85-34.11 178.42-34.11 178.13-34.06 171.44-33.77 167.47-29.8 167.47-24.49 167.47-20.86 168.85-18.61 171.58-17.08 172.92-16.26 174.79-15.5 177.23-14.73 181.44-13.44 183.25-11.29 183.25-8.8 183.25-7.03 181.53-5.36 178.71-5.36 175.26-5.36 170.67-7.03 167.18-9.18L167.18-2.15C170.53-0.29 174.36 0.62 178.66 0.62 179.38 0.62 179.95 0.62 180.29 0.57Z" fill="#1582c7" transform="translate(0, 90.11000061035156)">
  </g>
</svg>
