<svg xmlns="http://www.w3.org/2000/svg" viewBox="-40 0 150.26 90.339">
  <path d="M88.47 31.82a5.89 5.89 0 0 0 .45-2.27 6 6 0 1 0-6.37 5.94L98.83 63.7l-21 36.3h8.77l20.62-35.71zM28 43.46a6 6 0 0 0 5.31-8.66L49.05 7.56H91L86.6 0H45.37L27.12 31.61A6 6 0 0 0 28 43.46zM62.76 76.19a6 6 0 0 0-4.88 2.55H25.32l-21-36.3L0 50l20.62 35.71H58a6 6 0 1 0 4.77-9.52z" fill="#ffffff"></path>
  <path d="M94.85 14.29h-37a6 6 0 1 0 0 7h32.3l21 36.3 4.32-7.59zM87.18 56.23a6 6 0 0 0-5.08 9.06L66.42 92.44H24.5l4.37 7.56H70.1l18.49-32a6 6 0 0 0-1.41-11.75zM25.66 69.75a6 6 0 1 0 6.89-5.88L16.64 36.3 37.6 0h-8.73L8.25 35.71 26.32 67a6 6 0 0 0-.66 2.75z" fill="#ffffff"></path>
</svg>
